<svg xmlns="http://www.w3.org/2000/svg" viewBox="0 0 1143.23 386.91"><defs><style>.cls-1{fill:#fff;}.cls-2{fill:none;stroke:#fff;stroke-miterlimit:10;stroke-width:10px;}</style></defs><g id="Layer_2" data-name="Layer 2"><g id="TorontoAlcohol"><path class="cls-1" d="M190.89,101.58v18.24h-60.7V285.33H112V119.82H51.24V101.58Z"/><polygon class="cls-1" points="268.71 101.58 249.1 101.58 181.86 285.33 201.47 285.33 215.08 247.77 221.88 229.53 258.9 128.26 295.93 229.53 302.46 247.77 316.07 285.33 335.67 285.33 268.71 101.58"/><circle class="cls-2" cx="193.46" cy="193.46" r="188.46"/><path class="cls-1" d="M511.12,92.9v10.44H476.35v94.81H465.9V103.34H431.13V92.9Z"/><path class="cls-1" d="M564.76,92.9A50.74,50.74,0,0,1,585.18,97a53.29,53.29,0,0,1,28,28,50.6,50.6,0,0,1,4.13,20.42A51.17,51.17,0,0,1,613.17,166a52.29,52.29,0,0,1-11.3,16.68,54.13,54.13,0,0,1-16.69,11.23A50.57,50.57,0,0,1,564.76,198a51.12,51.12,0,0,1-20.5-4.13A52.37,52.37,0,0,1,516.35,166a51.18,51.18,0,0,1-4.14-20.51A50.61,50.61,0,0,1,516.35,125a54.22,54.22,0,0,1,11.22-16.69A52.55,52.55,0,0,1,544.26,97,51.29,51.29,0,0,1,564.76,92.9Zm0,94.64a41.15,41.15,0,0,0,16.37-3.27,43,43,0,0,0,13.41-9,41.26,41.26,0,0,0,9-13.4,41.77,41.77,0,0,0,3.28-16.46,41.83,41.83,0,0,0-12.32-29.7,44.25,44.25,0,0,0-13.41-9,41.56,41.56,0,0,0-32.74,0,44,44,0,0,0-13.41,9,41.83,41.83,0,0,0-12.32,29.7,41.59,41.59,0,0,0,3.28,16.46,41.11,41.11,0,0,0,9,13.4,42.77,42.77,0,0,0,13.41,9A41.15,41.15,0,0,0,564.76,187.54Z"/><path class="cls-1" d="M717.56,132.19A37.47,37.47,0,0,1,715.69,144a42.29,42.29,0,0,1-5.14,10.52,37.52,37.52,0,0,1-8,8.5,37,37,0,0,1-10.29,5.69l20,29.47H699.63L681.39,171c-1.36.1-2.68.18-4,.23s-2.63.08-4,.08H648.8v26.82H638.35V92.9h40.07A37.87,37.87,0,0,1,693.7,96a40.12,40.12,0,0,1,12.48,8.41,39.2,39.2,0,0,1,11.38,27.76ZM648.8,160.88h29.62a27.8,27.8,0,0,0,11.16-2.26,29,29,0,0,0,15.28-15.28,27.88,27.88,0,0,0,2.26-11.15A28.48,28.48,0,0,0,704.86,121a28.75,28.75,0,0,0-15.28-15.35,27.8,27.8,0,0,0-11.16-2.27H648.8Z"/><path class="cls-1" d="M791.16,92.9A50.77,50.77,0,0,1,811.58,97a53.29,53.29,0,0,1,28,28,50.77,50.77,0,0,1,4.13,20.42A51.34,51.34,0,0,1,839.57,166a52.29,52.29,0,0,1-11.3,16.68,54.13,54.13,0,0,1-16.69,11.23A50.6,50.6,0,0,1,791.16,198a51.17,51.17,0,0,1-20.51-4.13A52.46,52.46,0,0,1,742.74,166a51.34,51.34,0,0,1-4.13-20.51A50.77,50.77,0,0,1,742.74,125,54.43,54.43,0,0,1,754,108.33,52.62,52.62,0,0,1,770.65,97,51.34,51.34,0,0,1,791.16,92.9Zm0,94.64a41.18,41.18,0,0,0,16.37-3.27,43,43,0,0,0,13.41-9,41.26,41.26,0,0,0,9-13.4,41.77,41.77,0,0,0,3.28-16.46,41.83,41.83,0,0,0-12.32-29.7,44.25,44.25,0,0,0-13.41-9,41.58,41.58,0,0,0-32.75,0,44.09,44.09,0,0,0-13.4,9,41.72,41.72,0,0,0-12.32,29.7,41.76,41.76,0,0,0,3.27,16.46,41.13,41.13,0,0,0,9,13.4,42.84,42.84,0,0,0,13.4,9A41.2,41.2,0,0,0,791.16,187.54Z"/><path class="cls-1" d="M925.26,198.15,875.2,112.86v85.29H864.75V92.9h10.77l50.05,85.29V92.9H936V198.15Z"/><path class="cls-1" d="M1037.05,92.9v10.44h-34.77v94.81H991.83V103.34H957.06V92.9Z"/><path class="cls-1" d="M1090.69,92.9A50.7,50.7,0,0,1,1111.11,97a53.36,53.36,0,0,1,28,28,50.76,50.76,0,0,1,4.12,20.42,51.33,51.33,0,0,1-4.12,20.51,52.48,52.48,0,0,1-11.31,16.68,54.13,54.13,0,0,1-16.69,11.23,50.53,50.53,0,0,1-20.42,4.13,51.12,51.12,0,0,1-20.5-4.13A52.37,52.37,0,0,1,1042.28,166a51.18,51.18,0,0,1-4.14-20.51,50.61,50.61,0,0,1,4.14-20.42,54.22,54.22,0,0,1,11.22-16.69A52.55,52.55,0,0,1,1070.19,97,51.29,51.29,0,0,1,1090.69,92.9Zm0,94.64a41.15,41.15,0,0,0,16.37-3.27,43,43,0,0,0,13.41-9,42,42,0,0,0,0-59.56,44.25,44.25,0,0,0-13.41-9,41.56,41.56,0,0,0-32.74,0,44,44,0,0,0-13.41,9,41.83,41.83,0,0,0-12.32,29.7,41.59,41.59,0,0,0,3.28,16.46,41.11,41.11,0,0,0,9,13.4,42.77,42.77,0,0,0,13.41,9A41.15,41.15,0,0,0,1090.69,187.54Z"/><path class="cls-1" d="M496.81,302.4,491,286.65H455.35l-5.78,15.75H444l26.46-72.3H476l26.35,72.3Zm-39.64-21h32l-16-43.81Z"/><path class="cls-1" d="M585,297.15v5.25H533.44V230.1h5.24v67Z"/><path class="cls-1" d="M677.7,291.9a35.75,35.75,0,0,1-25.6,10.5A35.25,35.25,0,0,1,638,299.56a36,36,0,0,1-19.17-19.17,36.35,36.35,0,0,1,0-28.17,36.93,36.93,0,0,1,7.71-11.51A35.76,35.76,0,0,1,638,232.94a36.47,36.47,0,0,1,28.22,0,36.65,36.65,0,0,1,11.46,7.77l-3.64,3.64a32.28,32.28,0,0,0-9.91-6.59,30.36,30.36,0,0,0-12-2.41,28.9,28.9,0,0,0-11.56,2.41,32.08,32.08,0,0,0-16.71,16.44,28.93,28.93,0,0,0-2.57,12.11A29.67,29.67,0,0,0,623.61,278a31.09,31.09,0,0,0,6.53,9.8,32.82,32.82,0,0,0,9.81,6.8,28.75,28.75,0,0,0,12.15,2.57A32.55,32.55,0,0,0,664,294.9a27.61,27.61,0,0,0,10.07-6.74Z"/><path class="cls-1" d="M744.91,230.1A35,35,0,0,1,759,232.94a36.68,36.68,0,0,1,19.25,19.23,36.2,36.2,0,0,1,0,28.11,35.76,35.76,0,0,1-7.77,11.46A37.59,37.59,0,0,1,759,299.46a35,35,0,0,1-14.05,2.83,35.35,35.35,0,0,1-14.11-2.83,36.65,36.65,0,0,1-11.48-7.72,36.28,36.28,0,0,1-7.72-11.46,36.2,36.2,0,0,1,0-28.11,37.08,37.08,0,0,1,7.72-11.46,36,36,0,0,1,11.48-7.77A35.36,35.36,0,0,1,744.91,230.1Zm-.06,67a30.36,30.36,0,0,0,12-2.41,31,31,0,0,0,16.5-16.47,30.27,30.27,0,0,0,2.41-12,29.34,29.34,0,0,0-2.47-11.91,31.32,31.32,0,0,0-16.44-16.42,29.72,29.72,0,0,0-12-2.46,30.4,30.4,0,0,0-12.05,2.41,30.65,30.65,0,0,0-16.38,16.36,31.21,31.21,0,0,0,0,24.05A31.43,31.43,0,0,0,723,288a30.5,30.5,0,0,0,21.84,9Z"/><path class="cls-1" d="M859.35,230.1v72.3H854.1V268.88H817.26V302.4H812V230.1h5.25v33.53H854.1V230.1Z"/><path class="cls-1" d="M926.45,230.1a35,35,0,0,1,14,2.84,36.68,36.68,0,0,1,19.25,19.23,36.08,36.08,0,0,1,0,28.11A35.76,35.76,0,0,1,952,291.74a37.59,37.59,0,0,1-11.48,7.72,35,35,0,0,1-14,2.83,35.35,35.35,0,0,1-14.11-2.83,36.13,36.13,0,0,1-19.2-19.18,36.2,36.2,0,0,1,0-28.11,37.11,37.11,0,0,1,7.73-11.46,35.8,35.8,0,0,1,11.47-7.77A35.36,35.36,0,0,1,926.45,230.1Zm-.06,67a30.41,30.41,0,0,0,12.06-2.41,31,31,0,0,0,16.49-16.47,30.09,30.09,0,0,0,2.41-12,29.18,29.18,0,0,0-2.47-11.91,31.35,31.35,0,0,0-16.43-16.42,29.77,29.77,0,0,0-12.06-2.46,30.43,30.43,0,0,0-12,2.41A30.65,30.65,0,0,0,898,254.12a31.21,31.21,0,0,0,0,24.05,31.43,31.43,0,0,0,6.59,9.84,30.5,30.5,0,0,0,21.84,9Z"/><path class="cls-1" d="M1045.06,297.15v5.25H993.55V230.1h5.24v67Z"/><path class="cls-1" d="M1081.8,249a8.49,8.49,0,0,0,2.13,5.63,21.45,21.45,0,0,0,5.19,4.39,37.31,37.31,0,0,0,12.44,4.76,43.93,43.93,0,0,1,7.86,2.26,38.11,38.11,0,0,1,7.85,4.06,23.84,23.84,0,0,1,6,5.84,12.89,12.89,0,0,1,2.4,7.66,14.54,14.54,0,0,1-2.25,8.08,20.39,20.39,0,0,1-5.68,5.84,25.4,25.4,0,0,1-7.71,3.54,31.2,31.2,0,0,1-8.24,1.17,33.05,33.05,0,0,1-14.3-3.26,30.52,30.52,0,0,1-11.41-9.16l5.14-1.92a35.65,35.65,0,0,0,9.45,6.74,25,25,0,0,0,11.28,2.68,24.05,24.05,0,0,0,6-.86,21.72,21.72,0,0,0,6.09-2.57,16.74,16.74,0,0,0,4.7-4.28,9.52,9.52,0,0,0,1.92-5.89,8.67,8.67,0,0,0-2.14-5.68,21,21,0,0,0-5.19-4.45,32.74,32.74,0,0,0-6.53-3,55,55,0,0,0-6-1.71,44.75,44.75,0,0,1-7.77-2.25,38.3,38.3,0,0,1-7.87-4.07,24.31,24.31,0,0,1-6.11-5.84,12.5,12.5,0,0,1-2.46-7.55,14.06,14.06,0,0,1,2.35-8.08,22,22,0,0,1,5.89-5.9,27.51,27.51,0,0,1,7.83-3.64,29.36,29.36,0,0,1,22.59,2.42,39.7,39.7,0,0,1,11.57,9.31l-5.14,1.93a22.88,22.88,0,0,0-4.12-4,28.07,28.07,0,0,0-5.2-3.11,33,33,0,0,0-5.72-2,22.92,22.92,0,0,0-5.63-.75,25.48,25.48,0,0,0-6.26.85,22.72,22.72,0,0,0-6.22,2.57,16.61,16.61,0,0,0-4.76,4.29A9.67,9.67,0,0,0,1081.8,249Z"/></g></g></svg>